<?xml version="1.0" encoding="utf-8" ?><svg xmlns="http://www.w3.org/2000/svg" xmlns:xlink="http://www.w3.org/1999/xlink" width="2048" height="1003" viewBox="0 0 2048 1003"><path fill="white" d="M1578.79 226.32C1616.82 222.262 1630.92 242.99 1655.84 266.693L1695.33 303.804C1709.59 293.593 1728.73 273.967 1741.94 261.146C1759.35 243.162 1779.35 225.741 1806.08 227.144C1863.1 230.135 1888.44 287.233 1841.47 327.499C1821.24 344.838 1799.03 366.425 1780.55 384.123C1790.66 392.774 1799.86 402.268 1809.95 411.287C1840.9 438.944 1879.97 467.889 1854.19 513.839C1845.37 529.57 1832.46 537.246 1815.21 541.747C1776.28 545.646 1761.56 525.179 1735.33 500.367L1695.96 463.457C1673.81 483.611 1645.76 514.113 1621.78 530.126C1588.72 552.205 1528.81 530.823 1527.93 486.985C1527.64 472.32 1531.67 460.857 1541.73 449.711C1563.4 426.039 1589.08 407.399 1610.54 383.349L1567.61 343.335C1559.58 335.853 1548.16 326.581 1542.1 317.817C1515.13 278.783 1533.77 236.612 1578.79 226.32Z"/><path fill="white" d="M779.76 334.205C829.922 328.014 864.378 378.572 826.869 416.83C792.713 451.09 757.988 484.82 723.564 518.812C711.52 530.706 704.907 535.019 688.531 538.87C674.897 540.545 662.41 539.348 650.964 532.295C625.339 516.451 616.484 485.099 637.882 461.379C669.979 425.607 705.275 392.803 739.893 359.512C754.614 345.356 759.098 338.922 779.76 334.205Z"/><path fill="white" d="M1323.76 225.304C1334.13 224.978 1350.68 227.548 1358.38 233.881C1376.41 248.72 1396.22 268.493 1413.18 284.633L1458.08 327.468C1464.24 333.366 1479.26 346.393 1483.32 352.867C1506.12 389.225 1487.06 423.522 1448.28 431.174C1406.8 433.116 1392.49 404.983 1365.34 379.588C1340.44 355.201 1311.84 333.321 1289.41 306.602C1261.05 272.813 1283.71 231.726 1323.76 225.304Z"/><path fill="white" d="M780.018 122.31C800.693 120.923 814.35 127.416 829.153 141.657C842.955 154.935 856.95 168.419 870.856 181.605L914.616 223.052C929.042 236.809 946.711 250.567 949.955 271.171C954.837 302.177 934.978 322.452 906.436 327.927C876.291 329.667 861.808 316.83 842.407 295.828C812.569 263.477 775.994 237.11 747.347 203.684C719.157 170.791 740.513 129.756 780.018 122.31Z"/><path fill="white" d="M556.761 123.209C600.598 118.983 615.519 149.659 644.5 176.303C669.169 198.985 694.771 220.884 717.171 245.859C745.157 277.06 727.761 318.013 689.194 327.802C679.374 329.496 658.318 327.608 650.667 320.887C608.838 282.64 564.279 243.017 525.325 201.9C500.176 175.354 519.328 131.424 556.761 123.209Z"/><path fill="white" d="M357.972 122.326C393.51 120.118 408.322 147.413 432.802 168.085C437.175 171.777 441.476 176.32 445.662 180.298L490.98 223.502C498.557 230.788 513.481 243.66 518.669 251.905C540.309 286.299 517.391 322.503 480.989 328.372C451.846 330.894 438.591 314.917 419.396 296.634L380.253 259.231L343.07 223.808C329.497 210.855 313.234 198.684 311.248 178.728C308.161 147.697 328.16 126.41 357.972 122.326Z"/><path fill="white" d="M331.057 338.22C341.763 337.194 358.806 339.629 366.944 346.234C386.991 362.505 408.262 383.829 427 401.666L467.791 440.58C474.449 446.963 488.416 459.042 492.986 466.286C515.25 501.578 495.753 537.291 457.239 543.822C426.146 545.719 411.102 530.249 391.517 509.19C362.471 477.957 326.863 452.162 298.994 419.713C271.043 387.168 291.318 346.007 331.057 338.22Z"/><path fill="white" d="M1663.67 701.386C1705.57 698.24 1737.98 720.591 1742.95 763.256C1748.34 809.562 1729.38 845.995 1681.08 852.111C1660.57 853.788 1641.16 850.831 1624.34 837.644C1592.84 812.953 1590.12 755.458 1614.21 724.984C1626.74 709.137 1644.1 703.367 1663.67 701.386ZM1681.1 826.37C1712.55 816.582 1714.08 780.017 1707.03 752.618C1701.4 730.701 1682.11 725.034 1661.48 727.253C1629.91 735.878 1628.39 772.364 1634.68 799.333C1640.08 822.454 1659.34 829.046 1681.1 826.37Z"/><path fill="white" d="M175.727 655.99L211.877 655.99L287.736 849.932L252.375 849.932L232.088 796.301L211.5 796.301L154.852 796.301L134.966 849.932L99.9165 849.932L175.727 655.99ZM164.503 768.984L195.5 768.984L223.333 768.984L203.216 712.918C200.548 705.302 196.529 691.353 193.467 684.733C185.9 712.932 174.582 741.478 164.503 768.984Z"/><path fill="white" d="M474.205 656.846L507.556 656.846L507.556 735.825L600.89 735.825L600.89 656.846L634.138 656.846C634.141 677.386 635.726 845.462 633.036 849.778L628.25 849.932L600.89 849.932L600.89 762.942L507.556 762.942L507.556 849.932L474.205 849.932L474.205 656.846Z"/><path fill="white" d="M1203.69 701.411C1220.91 699.772 1245.27 702.366 1257.91 715.318C1274.23 732.028 1270.74 760.668 1270.72 782.366L1270.66 849.932L1247.26 849.932L1240.47 828.821C1226.61 844.762 1214.1 852.202 1192.31 852.741C1175.4 853.16 1163.41 850.409 1150.63 838.509C1143.96 829.904 1141.15 822.532 1140.57 811.535C1137.79 758.468 1201.97 761.497 1238.22 760.579C1238.3 753.743 1238.69 746.206 1236 739.87C1224.59 713.014 1185.1 728.555 1166.68 736.099L1156.18 713.836C1170.62 706.264 1187.64 702.975 1203.69 701.411ZM1184.31 826.102C1205.72 833.013 1229.39 826.798 1236.6 803.556C1238.37 797.822 1239.85 785.974 1236.73 780.639C1235.26 780.509 1234.03 780.309 1232.56 780.446C1211.34 781.257 1173.27 779.317 1174.33 810.232C1174.56 816.958 1178.75 822.613 1184.31 826.102Z"/><path fill="white" d="M736.555 701.399C753.107 699.484 778.218 702.749 790.41 715.071C806.844 731.68 803.334 759.642 803.318 781.353L803.26 849.932L779.898 849.932L773.159 828.948L772.647 829.522C758.974 844.815 747.67 851.598 726.617 852.667C709.506 853.535 696.674 850.657 683.677 838.895C676.769 829.997 673.489 822.044 673.123 810.547C671.457 758.277 735.62 761.467 771.013 760.589C771.081 753.866 771.443 746.541 768.886 740.274C757.718 712.907 717.947 728.477 699.447 736.09L688.816 713.797C704.576 706.112 719.3 703.065 736.555 701.399ZM717.371 826.257C738.648 832.837 762.127 826.709 769.262 803.664C771.046 797.9 772.699 785.6 769.347 780.539L765.423 780.443C744.254 781.238 704.881 779.437 707.161 810.881C707.649 817.607 711.65 822.907 717.371 826.257Z"/><path fill="white" d="M1427.4 644.236L1460.07 644.236C1460.12 672.36 1460.65 697.85 1458.44 725.893C1470.12 708.259 1484.6 701.658 1505.21 701.1C1530.52 700.28 1555.13 709.762 1560.5 737.434C1563.43 752.495 1562.36 768.89 1562.35 784.28L1562.3 849.932L1529.63 849.932L1529.63 781.5C1529.74 767.359 1532.01 745.182 1521.64 734.367C1509.7 721.922 1482.37 724.864 1471.18 736.854C1456.79 752.274 1459.96 786.452 1459.98 806.185L1460.07 849.932L1427.4 849.932L1427.4 644.236Z"/><path fill="white" d="M989.016 644.236L1021.29 644.236C1021.33 687.053 1022.22 730.773 1019.78 773.422C1041.87 746.925 1061.19 728.492 1084.96 703.823L1122.89 703.823L1061.23 766.502L1097.84 813.077L1126.9 849.932L1088.32 849.932L1039.15 785.933L1021.29 799.897L1021.29 849.932L989.016 849.932L989.016 644.236Z"/><path fill="white" d="M1854.35 701.349C1870.12 699.663 1891.19 703.104 1902.46 714.945C1919.42 732.762 1916.03 761.542 1916.02 784.381L1915.96 849.932L1883.11 849.932C1883.13 828.34 1886.1 756.723 1879.58 741.803C1876.72 735.263 1871.88 730.229 1865.13 727.746C1854.31 723.766 1840.49 727.084 1830.35 731.876C1812.73 744.223 1813.6 767.742 1813.6 786.926C1813.59 807.927 1813.68 828.931 1813.74 849.932L1780.99 849.932L1780.99 703.823L1806.5 703.823L1811.53 724.315C1823.57 708.326 1835.04 703.741 1854.35 701.349Z"/><path fill="white" d="M904.897 701.398C925.205 700.411 938.017 702.279 956.898 709.65L947.004 734.741C923.081 726.127 889.188 718.8 877.323 750.101C868.705 772.839 870.549 814.942 897.71 824.255C915.354 830.306 935.521 824.551 951.896 817.014L952.788 817.727C953.66 821.629 953.243 838.668 953.212 843.654C943.176 848.914 935.032 850.748 924.051 852.125C879.757 857.655 843.769 837.129 840.004 790.132C836.075 741.086 853.279 706.614 904.897 701.398Z"/><path fill="white" d="M1331.62 671.28L1351.83 671.28L1351.83 703.823L1395.41 703.823L1395.41 727.337L1351.83 727.337L1351.74 776.677C1351.47 816.776 1348.25 835.402 1397.04 823.902L1397.04 842.25C1397.04 843.144 1396.77 845.357 1396.68 846.354C1390.6 852.052 1373.47 852.479 1365.41 852.587C1329.67 853.063 1318.3 831.828 1318.82 799.812C1319.2 775.747 1318.95 751.186 1318.99 727.337L1298.08 727.337L1298.08 713.533L1320.49 702.185L1331.62 671.28Z"/><path fill="white" d="M1330.34 459.123C1355.32 455.902 1378.16 473.584 1381.3 498.571C1384.44 523.558 1366.68 546.342 1341.69 549.401C1316.81 552.447 1294.15 534.789 1291.02 509.916C1287.9 485.044 1305.48 462.329 1330.34 459.123Z"/><path fill="white" d="M1698 120.364C1761.25 123.253 1761.07 201.628 1702.45 208.23C1638.71 208.119 1633.5 126.064 1698 120.364Z"/><path fill="white" d="M1440.1 118.821C1465.13 117.679 1486.37 136.996 1487.61 162.023C1488.84 187.051 1469.6 208.364 1444.58 209.69C1419.43 211.024 1397.98 191.663 1396.74 166.504C1395.5 141.345 1414.94 119.968 1440.1 118.821Z"/><path fill="white" d="M314.17 656.846L347.488 656.846L347.488 849.932L314.17 849.932L314.17 656.846Z"/><path fill="white" d="M1114.37 461.206C1138.69 457.489 1161.41 474.203 1165.1 498.524C1168.79 522.845 1152.05 545.548 1127.73 549.212C1103.44 552.871 1080.78 536.163 1077.09 511.879C1073.41 487.596 1090.09 464.917 1114.37 461.206Z"/><path fill="white" d="M1229.8 351.33C1285.78 348.683 1301.13 426.004 1238.39 437.177C1173.27 438.199 1170.27 359.184 1229.8 351.33Z"/><path fill="white" d="M556.692 351.344C612.352 348.524 629.028 424.666 566.117 437.138C500.791 438.789 497.458 359.468 556.692 351.344Z"/><path fill="white" d="M239.266 239.293C297.301 234.406 312.601 312.493 250.863 323.954C185.878 326.659 180.155 248.63 239.266 239.293Z"/><path fill="white" d="M1113.81 241.209C1169.67 236.324 1182.65 304.819 1128.39 318.683C1072.44 323.144 1059.63 253.916 1113.81 241.209Z"/><path fill="white" d="M244.601 466.268C297.223 461.46 312.888 528.205 259.219 541.82C205.494 547.721 190.57 480.381 244.601 466.268Z"/><path fill="white" d="M1000.78 359.244C1053.77 356.202 1064.67 420.808 1014.27 432.963C959.443 437.836 949.006 371.102 1000.78 359.244Z"/><path fill="white" d="M885.604 468.245C939.163 464.296 951.074 529.045 900.261 541.859C846.692 546.655 833.993 482.24 885.604 468.245Z"/><path fill="white" d="M141.136 138.71C155.668 136.803 169.025 146.953 171.082 161.464C173.138 175.975 163.127 189.437 148.638 191.643C139.131 193.09 129.579 189.32 123.624 181.77C117.669 174.219 116.228 164.052 119.851 155.144C123.474 146.236 131.602 139.961 141.136 138.71Z"/><path fill="white" d="M134.335 370.91C143.543 367.926 153.646 370.154 160.744 376.735C167.843 383.316 170.828 393.221 168.549 402.629C166.269 412.037 159.08 419.476 149.756 422.078C135.746 425.986 121.182 417.974 116.985 404.047C112.788 390.121 120.498 375.394 134.335 370.91Z"/><path fill="white" d="M1846.65 138.715C1855.84 137.554 1864.94 141.415 1870.49 148.828C1876.04 156.24 1877.18 166.062 1873.48 174.549C1869.78 183.036 1861.8 188.882 1852.59 189.858C1838.55 191.347 1825.94 181.252 1824.31 167.228C1822.68 153.205 1832.64 140.485 1846.65 138.715Z"/><path fill="white" d="M1228.69 139.317C1261 141.617 1264.64 179.797 1232.1 187.382C1197.52 187.199 1191.7 144.736 1228.69 139.317Z"/><path fill="white" d="M1006.65 139.313C1041.38 142.592 1040.68 183.232 1007.56 187.475C974.02 184.453 971.169 144.278 1006.65 139.313Z"/></svg>