<?xml version="1.0" encoding="utf-8" ?><svg xmlns="http://www.w3.org/2000/svg" xmlns:xlink="http://www.w3.org/1999/xlink" width="3643" height="1208" viewBox="0 0 3643 1208"><path d="M2585.26 240.341C2662.86 233.771 2731.2 291.115 2738.21 368.683C2745.22 446.251 2688.26 514.915 2610.74 522.361C2532.59 529.868 2463.25 472.354 2456.19 394.163C2449.12 315.973 2507.03 246.963 2585.26 240.341ZM2610.23 463.98C2656.13 456.736 2687.36 413.512 2679.83 367.656C2672.3 321.801 2628.88 290.84 2583.07 298.66C2537.67 306.412 2507.04 349.364 2514.51 394.814C2521.97 440.264 2564.73 471.16 2610.23 463.98Z"/><path d="M1698.49 150.053C1708.74 148.78 1741.31 149.714 1753.4 149.821C1758.54 158.981 1764.15 176.422 1768.34 186.605C1775.05 202.953 1781.87 219.417 1788.39 235.838L1854.52 399.219L1884.73 475.096C1889.3 486.25 1895.25 501.94 1900.7 512.327C1879.43 513.044 1855.66 512.501 1834.22 512.463C1825.74 486.738 1812.35 455.137 1801.66 429.818C1799.35 424.34 1766.28 426.446 1758.5 426.534L1650.81 426.885C1643.88 441.554 1637.18 459.442 1631 474.522C1626.76 484.874 1619.6 501.683 1616.9 512.125C1599.09 513.217 1572.19 512.365 1553.61 512.273C1565.79 486.69 1579.42 446.29 1590.77 418.473L1698.49 150.053ZM1670.85 373.883L1726.5 373.879C1741.59 373.899 1765.52 374.707 1779.89 373.777C1768.53 340.218 1741.13 267.053 1727.49 231.277C1726.88 230.97 1726.27 230.664 1725.65 230.357C1718.7 238.298 1677.89 354.921 1670.85 373.883Z"/><path d="M2214.46 149.215C2229.72 150.458 2255.65 149.753 2271.64 149.752L2375.06 149.748C2392.15 149.747 2412.71 149.175 2429.33 149.898C2429.25 164.87 2428.49 189.185 2429.69 203.334C2423.71 202.301 2390.74 202.782 2383.37 202.784L2276.37 202.845L2276.93 293.021C2323.01 294.778 2372.72 292.334 2419.47 293.532C2419.22 311.273 2419.53 328.614 2419.85 346.358C2374.31 348.018 2324.02 345.9 2277.63 346.731C2276.95 401.665 2277.03 457.417 2277.39 512.346C2256.02 512.68 2233.8 512.529 2212.46 512.316C2211.4 427.911 2212.17 340.06 2212.34 255.513L2212.03 184.28C2211.99 174.029 2211.71 162.612 2212.29 152.421C2212.42 150.105 2212.61 150.594 2214.46 149.215Z"/><path d="M3149.21 249.657C3166.73 251.333 3192.24 249.65 3210.6 250.271C3211.19 337.219 3209.66 425.549 3210.97 512.25C3198.69 512.224 3160.35 511.383 3150.45 512.629C3150.52 502.284 3149.5 490.756 3148.09 480.509C3145.23 483.494 3143.15 485.698 3140.6 488.95C3109.9 522.786 3058.22 530.456 3018.36 508.577C2987.57 491.677 2978.06 462.319 2972.45 429.977C2972.39 429.775 2972.33 429.573 2972.27 429.372C2970.08 408.867 2971.25 384.679 2971.2 363.887C2971.11 325.798 2971.69 287.755 2971.29 249.65C2988.67 251.455 3013.74 249.501 3031.98 250.316C3032.54 290.048 3031.18 329.66 3031.39 369.403C3031.1 378.99 3031.81 389.555 3031.49 399.034C3030.22 435.85 3045.06 470.324 3087.35 468.828C3110.13 468.022 3126.99 458.329 3139.63 438.757C3140.73 437.061 3143.98 431.11 3144.4 429.301C3152.63 409.491 3149.81 368.058 3149.87 345.527C3149.96 314.097 3150.44 280.97 3149.21 249.657Z"/><defs><linearGradient id="gradient_0" gradientUnits="userSpaceOnUse" x1="1339.1541" y1="637.22235" x2="1095.923" y2="847.71106"><stop offset="0" stop-color="#50E328"/><stop offset="1" stop-color="#13959B"/></linearGradient></defs><path fill="url(#gradient_0)" d="M1252.1 490.537C1240.13 432.561 1217.05 377.719 1190.84 324.941C1187.44 318.099 1157.03 267.189 1157.23 264.444C1165.21 266.81 1202.89 306.089 1210.14 314.759C1257.64 371.556 1284.57 432.808 1300.99 504.852C1305.61 528.202 1308.02 547.235 1310.74 570.682C1312.93 590.395 1313.1 627.53 1310.72 647.407C1309.19 663.117 1308.1 678.948 1305.25 694.486C1289.1 782.236 1244.63 874.043 1175.15 931.58C1174.98 931.72 1174.81 931.855 1174.64 931.992C1172.4 932.269 1170.31 933.189 1168.03 932.995C1168.25 930.036 1168.42 927.094 1168.59 924.133C1169.09 923.798 1173.49 917.161 1174.24 916.025C1256.95 790.444 1281.53 636.874 1252.1 490.537Z"/><path fill="#55E920" d="M1252.1 490.537C1240.13 432.561 1217.05 377.719 1190.84 324.941C1187.44 318.099 1157.03 267.189 1157.23 264.444C1165.21 266.81 1202.89 306.089 1210.14 314.759C1257.64 371.556 1284.57 432.808 1300.99 504.852C1298.23 525.737 1303.43 553.151 1306.17 573.821C1307.09 580.742 1306.89 591.664 1306.9 598.898C1297.93 590.079 1272.95 561.877 1266.77 550.328C1266.12 549.121 1262.72 520.155 1262.31 516.612C1261.63 510.877 1260.32 499.806 1257.32 493.309C1256.45 491.428 1254.36 491.267 1252.1 490.537Z"/><defs><linearGradient id="gradient_1" gradientUnits="userSpaceOnUse" x1="1147.135" y1="641.13409" x2="913.42596" y2="843.38049"><stop offset="0" stop-color="#50E32A"/><stop offset="1" stop-color="#12949D"/></linearGradient></defs><path fill="url(#gradient_1)" d="M1064.85 494.655C1058.5 455.806 1040.6 412.413 1025.44 376.336C1024.14 373.248 1016.7 357.906 1016.31 356.165C1013.47 343.533 968.025 284.175 968.059 278.424C976.167 277 1021.75 325.797 1028.44 333.317C1077.17 388.143 1107.33 454.397 1119.02 526.567C1119.98 531.219 1120.71 535.874 1121.37 540.576C1141.28 683.626 1094.8 828.859 981.274 921.018C979.686 919.986 980.13 920.258 978.882 918.743L979.795 910.296C986.979 901.981 1003.85 872.267 1009.92 861.357C1068.19 756.655 1094.45 611.379 1064.85 494.655Z"/><path fill="#55E920" d="M1064.85 494.655C1058.5 455.806 1040.6 412.413 1025.44 376.336C1024.14 373.248 1016.7 357.906 1016.31 356.165C1013.47 343.533 968.025 284.175 968.059 278.424C976.167 277 1021.75 325.797 1028.44 333.317C1077.17 388.143 1107.33 454.397 1119.02 526.567C1117.73 537.081 1118.32 553.689 1118.33 564.532C1118.35 573.861 1123.71 602.524 1120.7 610.232C1121.02 610.279 1086.97 572.461 1083.99 568.758C1075.07 557.695 1080.23 499.492 1064.85 494.655Z"/><defs><linearGradient id="gradient_2" gradientUnits="userSpaceOnUse" x1="1237.2026" y1="649.71454" x2="1008.4838" y2="847.82477"><stop offset="0" stop-color="#4EE12D"/><stop offset="1" stop-color="#12949D"/></linearGradient></defs><path fill="url(#gradient_2)" d="M1076.44 301.089C1076.38 298.037 1075.8 296.02 1077.13 293.718C1080.18 295.022 1081.52 295.507 1084.85 295.778C1102.15 309.811 1119.27 329.599 1133.38 346.981C1174.8 397.989 1198.73 462.116 1212.7 525.69C1212.7 525.988 1212.71 526.285 1212.71 526.582C1230.07 613.906 1215.57 713.428 1176.82 793.726C1168.2 811.576 1149.2 839.337 1138.09 855.678C1128.84 869.297 1072.22 928.02 1060.58 929.876L1059.87 928.81C1062.17 924.433 1066.92 919.948 1069.92 915.34C1111.78 851.049 1149.4 773.453 1162.68 697.48C1173.53 635.431 1171.29 567.662 1159.8 506.339C1160.63 477.979 1121.17 380.437 1106.43 351.187C1101.77 341.955 1083.08 309.942 1076.44 301.089Z"/><path fill="#55E920" d="M1076.44 301.089C1076.38 298.037 1075.8 296.02 1077.13 293.718C1080.18 295.022 1081.52 295.507 1084.85 295.778C1102.15 309.811 1119.27 329.599 1133.38 346.981C1174.8 397.989 1198.73 462.116 1212.7 525.69C1212.7 525.988 1212.71 526.285 1212.71 526.582C1208.53 536.691 1213.99 564.987 1213.57 576.208C1213.28 584.07 1215.62 618.824 1212.24 622.774L1210.69 622.106L1213.12 621.481L1209.66 619.847C1208.47 614.241 1175.06 582.235 1174.52 578.642C1172.68 566.48 1173.11 544.742 1170.03 531.367C1168.02 522.633 1169.55 509.654 1159.8 506.339C1160.63 477.979 1121.17 380.437 1106.43 351.187C1101.77 341.955 1083.08 309.942 1076.44 301.089Z"/><path d="M1942.6 149.368C1963.26 150.708 1985.53 149.047 2006.28 150.075C2004.44 157.726 2004.96 194.165 2004.96 203.758L2005.18 318.347L2005.66 433.099C2005.58 455.372 2004.35 489.509 2006.16 510.924L2005.98 512.128C1989.95 513.057 1955.72 512.781 1939.63 512.003C1940.46 505.838 1939.88 489.079 1939.81 482.326L1939.49 425.675L1940.49 214.927C1940.5 205.092 1938.73 154.771 1942.6 149.368Z"/><defs><linearGradient id="gradient_3" gradientUnits="userSpaceOnUse" x1="487.62012" y1="171.83492" x2="753.49054" y2="402.12714"><stop offset="0" stop-color="#65FD02"/><stop offset="1" stop-color="#27AE76"/></linearGradient></defs><path fill="url(#gradient_3)" d="M388.879 281.285C396.876 273.577 409.688 265.242 418.941 258.888C558.291 163.214 757.865 161.68 895.196 260.428C882.507 263.211 885.421 249.176 874.133 264.47C872.01 267.347 866.45 267.783 865.06 274.108C868.474 280.595 877.905 277.91 876.962 284.739C842.226 270.647 814.757 260.067 778.276 251.006C667.041 223.376 551.336 236.788 446.155 280.508C422.325 290.413 389.619 306.955 367.968 321.066C361.753 324.484 339.485 338.834 333.059 343.547L332.514 343.953L331.164 343.612C331.318 341.281 335.311 337.423 336.864 335.328C351.464 315.625 369.044 295.73 388.879 281.285Z"/><path fill="#65FD01" d="M388.879 281.285C388.545 293.75 366.288 309.459 361.065 320.198C363.378 320.512 365.649 320.803 367.968 321.066C361.753 324.484 339.485 338.834 333.059 343.547L332.514 343.953L331.164 343.612C331.318 341.281 335.311 337.423 336.864 335.328C351.464 315.625 369.044 295.73 388.879 281.285Z"/><path d="M2847.44 275.698C2870.05 246.327 2909.66 236.426 2943.98 249.123L2944.5 262.212C2944.71 277.895 2944.39 297.744 2945.31 313.079C2931.42 308.04 2920.59 303.546 2905.64 303.239C2873.17 302.91 2845.46 320.381 2838.51 353.102C2833.82 375.153 2835.42 394.594 2835.25 416.942L2835.06 512.205C2818.04 512.95 2792.66 512.532 2775.65 512.117C2774.62 425.982 2774.82 336.569 2775.22 250.376C2791.97 249.368 2820.55 251.571 2835.75 249.48C2834.17 259.432 2834.47 280.967 2835.03 291.429L2847.44 275.698Z"/><defs><linearGradient id="gradient_4" gradientUnits="userSpaceOnUse" x1="861.67255" y1="1001.7292" x2="728.2995" y2="886.24658"><stop offset="0" stop-color="#66FF01"/><stop offset="1" stop-color="#47D73B"/></linearGradient></defs><path fill="url(#gradient_4)" d="M602.389 968.982C624.914 969.863 646.849 971.547 668.742 970.975C777.203 968.143 880.616 931.139 970.245 870.878C972.549 869.33 977.568 867.249 980.414 865.799L981.42 866.904C926.581 944.58 819.869 1000.12 727.848 1014.79C675.191 1023.18 606.066 1024.7 555.134 1009.4C523.9 1001.69 493.749 991.194 465.235 976.175C461.783 964.92 449.386 966.452 446.824 960.815C448.053 954.825 459.746 943.55 464.506 938.454C476.898 943.553 482.749 946.681 496.271 946.245C526.715 954.3 555.713 963.329 587.194 966.778C591.816 967.284 597.8 968.121 602.389 968.982Z"/><path fill="#3AC751" d="M465.235 976.175C461.783 964.92 449.386 966.452 446.824 960.815C448.053 954.825 459.746 943.55 464.506 938.454C476.898 943.553 482.749 946.681 496.271 946.245C526.715 954.3 555.713 963.329 587.194 966.778C591.816 967.284 597.8 968.121 602.389 968.982C598.454 969.132 594.925 969.217 590.988 969.156C594.85 971.524 644.536 974.259 652.559 974.033C646.573 981.316 621.779 1010.89 615.493 1016.26C597.92 1016.75 577.56 1010.18 560.084 1007.86C558.585 1007.66 556.306 1008.51 555.134 1009.4C523.9 1001.69 493.749 991.194 465.235 976.175Z"/><path d="M3126.38 678.444C3152.9 676.166 3180.57 681.311 3200.16 700.579C3225.44 725.437 3219.37 757.65 3220.02 789.477C3220.5 812.698 3220.49 835.824 3220.35 859.05C3210.51 859.155 3201.46 859.137 3191.63 858.786C3191.74 854.046 3192.57 844.46 3190.58 840.667L3188.7 840.578C3148.45 879.413 3062.22 869.156 3055.19 806.188C3053.34 736.084 3144.86 721.16 3190.84 764.282C3190.84 762.23 3190.75 760.044 3190.77 758.009C3191.45 697.269 3120.72 684.138 3084.2 724.522L3063.69 708.407C3081.86 689.119 3100.56 681.786 3126.38 678.444ZM3145.17 840.49C3159.74 839.162 3172.58 835.091 3182.38 823.476C3195.43 808.017 3191.6 785.655 3175.79 773.782C3161.83 763.187 3146.35 761.213 3129.55 762.351C3114.38 764.78 3100.45 770.242 3090.81 782.858C3078.46 799.028 3086.03 819.826 3101.64 830.514C3115.18 839.854 3129.44 841.011 3145.17 840.49Z"/><path d="M2785.06 708.178C2788.73 704.582 2792.95 700.424 2797.07 697.38C2834.58 669.617 2900.74 669.654 2929.57 710.168C2936.38 719.741 2938.4 729.22 2940.95 740.408C2941.65 765.464 2941.86 793.281 2941.5 818.373C2941.16 831.843 2941.18 845.347 2941.14 858.823C2932.19 859.306 2920.77 858.969 2911.64 858.938C2911.4 852.631 2911.53 845.207 2911.49 838.81C2884.15 865.366 2841.59 871.054 2808.98 853.266C2746.99 819.45 2780.45 742.339 2843.57 740.097C2871.67 739.099 2891.55 745.622 2912.31 763.817C2911.49 744.261 2911.85 731.095 2896.73 715.747C2886.47 705.332 2868.9 701.249 2854.64 702.121C2831.22 703.553 2820.8 709.115 2805.63 725.276C2797.74 719.935 2792.12 714.598 2785.06 708.178ZM2868.43 840.167C2877.98 838.402 2885.22 836.617 2893.8 831.59C2917.95 817.445 2916.87 785.849 2893.32 771.647C2879.32 763.199 2867.77 761.221 2851.57 762.313C2779.14 772.057 2801.22 849.961 2868.43 840.167Z"/><defs><linearGradient id="gradient_5" gradientUnits="userSpaceOnUse" x1="200.41504" y1="772.99445" x2="333.57343" y2="657.61499"><stop offset="0" stop-color="#65FE01"/><stop offset="1" stop-color="#42D143"/></linearGradient></defs><path fill="url(#gradient_5)" d="M230.104 415.329C232.01 415.246 233.938 415.194 235.834 415.01L236.213 415.208C236.033 417.9 235.174 418.652 233.577 420.981C234.757 423.369 252.053 443.256 253.521 443.888L256.649 443.878C258.373 445.975 257.485 451.437 257.942 455.354C256.269 458.419 254.196 466.311 253.166 470.172C246.987 493.343 242.898 517.327 239.562 541.064C238.46 548.904 238.223 558.272 237.104 565.479C237.429 569.277 236.21 580.356 236.042 584.871C235.52 598.94 234.58 614.83 235.761 628.828C242.464 708.306 263.834 786.737 300.942 857.463C314.19 882.714 333.397 910.212 348.653 934.193C334.042 925.182 303.388 897.909 291.943 884.761C254.469 841.707 225.211 788.102 206.305 734.36C197.57 709.528 191.887 680.116 189.097 653.844C186.463 606.405 186.887 553.926 196.76 507.363C198.112 500.989 199.547 492.211 202.27 486.736C201.992 474.851 224.11 428.806 230.104 415.329Z"/><path fill="#3AC751" d="M230.104 415.329C232.01 415.246 233.938 415.194 235.834 415.01L236.213 415.208C236.033 417.9 235.174 418.652 233.577 420.981C234.757 423.369 252.053 443.256 253.521 443.888L256.649 443.878C258.373 445.975 257.485 451.437 257.942 455.354C256.269 458.419 254.196 466.311 253.166 470.172C246.987 493.343 242.898 517.327 239.562 541.064C238.46 548.904 238.223 558.272 237.104 565.479C235.687 556.448 238.383 535.152 236.158 531.324C235.849 535.838 235.576 535.754 232.362 539.14L230.659 539.106C223.31 527.871 210.571 517.126 203.261 506.133C201.93 504.131 209.686 492.908 202.27 486.736C201.992 474.851 224.11 428.806 230.104 415.329Z"/><path fill="#55E920" d="M138.172 412.827L141.989 413.526C142.901 417.049 139.465 419.794 140.805 421.509C146.479 428.774 154.005 436.317 159.361 443.811L161.172 444.142L164.052 441.46C165.53 444.906 164.354 448.759 164.831 453.156C147.39 525.209 141.216 559.893 142.843 634.629C148.897 695.084 160.404 746.895 183.354 803.128C199.849 843.545 216.548 878.425 242.407 914.139C245.679 918.657 250.328 923.051 251.897 928.502L250.538 929.559C244.383 923.207 236.953 919.967 230.381 914.299C191.69 880.935 162.627 842.95 139.954 797.652C100.599 719.027 91.8468 648.747 96.1705 561.622C96.0824 521.545 117.462 446.851 138.172 412.827Z"/><path fill="#3AC751" d="M138.172 412.827L141.989 413.526C142.901 417.049 139.465 419.794 140.805 421.509C146.479 428.774 154.005 436.317 159.361 443.811L161.172 444.142L164.052 441.46C165.53 444.906 164.354 448.759 164.831 453.156C147.39 525.209 141.216 559.893 142.843 634.629C137.986 621.34 136.618 583.159 136.69 567.603C136.69 567.603 138.876 565.339 138.876 565.339C140.276 557.715 140.16 542.113 140.318 534.624C142.041 532.375 142.214 532.277 142.779 529.572C140.188 520.872 121.619 507.283 117.373 497.145C116.814 495.809 114.786 495.967 113.463 496.076C106.686 502.678 107.027 530.072 104.439 539.101C102.807 544.797 98.3463 555.649 96.1705 561.622C96.0824 521.545 117.462 446.851 138.172 412.827Z"/><path fill="#55E920" d="M813.692 1039.31L814.611 1039.62C831.661 1045.24 928.228 995.379 947.018 983.367C951.105 980.755 964.667 971.299 968.106 970.326C941.539 998.985 919.838 1021.21 886.294 1042.22C852.885 1063.14 819.923 1080.69 781.708 1091.6C776.151 1093.25 770.266 1094.59 766.644 1099.3C707.747 1118.76 609.335 1118.2 550.344 1101.3C521.727 1095.27 458.155 1069.42 435.805 1052.65C442.656 1047.54 445.534 1057.86 452.156 1057.31C453.76 1053.29 467.855 1038.53 471.719 1034.26C465.859 1030.9 462.077 1030.87 456.372 1027.68L456.25 1026.48L460.399 1025.5C493.598 1039.39 525.155 1048.46 560.433 1055.13C572.531 1057.41 585.843 1058.71 597.363 1060.99C614.86 1061.82 630.079 1063.79 648.299 1063.94C707.774 1064.4 756.972 1055.77 813.692 1039.31Z"/><path fill="#30BB64" d="M460.399 1025.5C493.598 1039.39 525.155 1048.46 560.433 1055.13C572.531 1057.41 585.843 1058.71 597.363 1060.99C568.224 1063.46 517.032 1049.79 488.401 1040.41C481.419 1048.68 474.334 1057.31 467.046 1065.29C473.451 1074.15 534.815 1092.97 548.198 1097.95C548.566 1098.08 550.191 1100.98 550.344 1101.3C521.727 1095.27 458.155 1069.42 435.805 1052.65C442.656 1047.54 445.534 1057.86 452.156 1057.31C453.76 1053.29 467.855 1038.53 471.719 1034.26C465.859 1030.9 462.077 1030.87 456.372 1027.68L456.25 1026.48L460.399 1025.5Z"/><path d="M1555.12 613.465C1563.28 613.219 1569.88 613.117 1578.02 613.489C1587.34 628.004 1604.9 648.775 1616.09 663.155L1680.23 745.789C1692.43 761.215 1707.62 778.904 1719.05 794.41C1722.63 799.275 1725.05 802.127 1729.16 806.566C1730.3 793.198 1729.65 776.194 1729.63 762.48L1729.56 689.006L1729.81 613.592C1739.68 613.311 1747.43 613.282 1757.28 613.749L1758.84 859.49C1751.5 859.303 1743.22 859.286 1735.98 858.88C1703.74 820.846 1673.53 778.192 1641.8 739.253C1621.58 714.446 1605.23 690.211 1583.22 666.239C1582.16 696.698 1582.86 730.738 1583.09 761.363L1582.96 858.929C1573.94 859.002 1563.86 859.293 1554.94 858.775L1555.12 613.465Z"/><path d="M1883.61 678.435C1911.1 676.588 1935.44 683.11 1955.96 702.32C1979.34 724.215 1982.68 747.999 1983.53 778.1C1934.85 779.838 1878.18 777.847 1828.42 778.244C1830.14 819.225 1868.2 847.716 1907.95 839.853C1920.01 837.467 1927.62 833.592 1937.6 827.047C1959.63 810.986 1945.24 806.061 1972.66 826.775L1972 827.693C1941.67 869.447 1878.06 876.658 1837.2 846.466C1796.49 816.382 1788.33 755.285 1819.28 715.227C1836.68 692.717 1855.75 682.471 1883.61 678.435ZM1828.74 755.768C1852.64 756.4 1877.53 756.031 1901.5 755.99C1919.24 755.96 1938.77 756.349 1956.36 755.847C1945.52 718.597 1925.2 698.953 1884.66 702.276C1851.42 707.907 1838.36 724.993 1828.74 755.768Z"/><path d="M2648.39 678.431C2711.22 674.396 2750 715.267 2749.12 777.847C2714.97 779.901 2673.59 776.973 2638.82 778.111C2626.12 778.527 2607.63 777.036 2595.69 778.729C2594.77 779.502 2593.66 779.962 2593.79 781.264C2598.33 826.55 2647.99 853.686 2689.5 835.39C2695.33 832.823 2699.31 830.278 2704.53 826.846C2727.4 807.68 2715.06 810.084 2740.86 827.478C2721.72 846.414 2706.05 857.892 2679.14 862.95C2618.4 874.503 2562.25 829.212 2566.61 765.959C2569.87 718.693 2602.52 685.9 2648.39 678.431ZM2593.42 755.459C2615.62 756.677 2643.34 755.904 2665.94 755.875C2675.21 755.92 2713.99 756.697 2720.26 755.191C2721.91 752.13 2720.97 748.487 2719.81 745.271C2708.78 714.681 2682.62 698.975 2651.31 702.254C2617.67 709.715 2603.9 722.949 2593.42 755.459Z"/><path d="M2125.28 683.701C2131.26 683.538 2137.98 683.813 2144.02 683.924C2161.89 727.609 2178.1 769.566 2196.88 813.079C2200.49 807.001 2209.09 784.825 2211.99 776.989C2223.71 745.365 2234.77 715.1 2247.5 683.802C2255.45 683.353 2267.08 683.781 2275.31 683.832C2272.1 693.002 2264.14 710.909 2259.86 719.949C2250.63 748.081 2239.54 775.571 2227.66 802.663C2221.51 816.701 2212.37 846.024 2205.59 858.134C2201.36 859.589 2194.08 859.042 2189.37 858.96C2186.38 845.581 2176.99 830.03 2172.37 816.829C2161.79 786.571 2146.54 756.422 2136.27 726.317C2127.79 738.513 2110.97 783.399 2104.21 799.18C2096.62 816.918 2085.85 840.566 2079.77 858.753C2074.9 858.994 2069.06 858.827 2064.12 858.815C2042.16 814.199 2027.38 762.169 2007.03 716.544C2002.61 706.624 1998.54 694.261 1995.06 683.932C2004.29 683.494 2013.99 683.736 2023.26 683.827C2041.04 725.414 2054.8 771.047 2072.12 812.845C2081.55 799.649 2105.18 733.419 2112.5 716.561C2114.87 711.091 2123.46 689.468 2125.28 683.701Z"/><path fill="#55E920" d="M632.88 94.9151C675.136 90.3206 740.721 98.5504 780.04 111.438L778.614 113.398C766.869 111.874 742.567 102.826 732.633 104.206C725.349 110.629 707.909 132.868 698.766 142.471C704.106 144.22 744.851 146.223 749.455 149.405C745.795 149.53 742.393 149.707 738.74 149.978C733.951 149.471 729.143 148.891 724.377 148.205C688.34 143.024 652.896 143.938 616.651 145.257C609.142 146.726 600.509 147.157 592.777 148.107C496.63 159.922 408.913 196.696 330.539 253.353C384.511 161.409 529.904 96.2689 632.88 94.9151Z"/><path fill="#3AC751" d="M632.88 94.9151C675.136 90.3206 740.721 98.5504 780.04 111.438L778.614 113.398C766.869 111.874 742.567 102.826 732.633 104.206C725.349 110.629 707.909 132.868 698.766 142.471C704.106 144.22 744.851 146.223 749.455 149.405C745.795 149.53 742.393 149.707 738.74 149.978C733.951 149.471 729.143 148.891 724.377 148.205C688.34 143.024 652.896 143.938 616.651 145.257C625.859 137.934 654.217 143.617 666.117 140.233C664.108 140.805 686.87 141.543 688.304 141.502C698.865 129.537 712.124 112.904 723.051 101.958C693.35 95.6582 662.658 97.5082 632.88 94.9151Z"/><path d="M2367.54 613.267C2376.45 612.876 2386.2 613.022 2395.15 613.136C2444.46 613.768 2494.23 612.263 2543.5 613.472C2543.43 619.607 2543.75 625.391 2544.06 631.5L2454.14 755.568C2437.46 778.802 2414.1 810.144 2399.02 833.97C2445.7 835.998 2499.59 833.553 2547.34 834.358L2546.63 858.666C2526.38 859.762 2500.97 859.09 2480.42 859.106L2361.71 859.106L2361.45 840.772C2400.25 788.813 2436.71 735.626 2474.93 683.294C2485.72 668.528 2496.43 653.272 2506.67 638.148C2461.1 636.695 2412.76 638.956 2366.64 637.734C2366.55 632.563 2365.88 617.158 2367.54 613.267Z"/><path d="M3295.58 709.382C3314 691.637 3328.41 678.349 3356.24 678.356C3390.83 678.365 3414.26 698.373 3420.8 732.266C3424.05 749.148 3422.05 767.511 3422.6 784.679C3422.57 809.281 3422.67 834.364 3422.2 858.918C3416.11 859.051 3400.11 859.927 3395.1 857.942L3395.15 787.322C3395.14 766.6 3396.79 744.898 3388.7 725.641C3373.77 699.684 3347.17 694.919 3321.93 708.696C3293.48 724.226 3296.44 757.527 3296.06 784.626C3295.7 809.582 3296.47 834.489 3295.73 859.122C3286.94 859.075 3277.87 859.152 3269.12 858.972C3269.36 801.275 3270.51 741.053 3268.77 683.696C3277.86 683.559 3287.1 683.323 3296.17 683.588C3295.98 691.709 3295.48 701.391 3295.58 709.382Z"/><path fill="#30BB64" d="M738.74 149.978C742.393 149.707 745.795 149.53 749.455 149.405C744.851 146.223 704.106 144.22 698.766 142.471C707.909 132.868 725.349 110.629 732.633 104.206C742.567 102.826 766.869 111.874 778.614 113.398L780.04 111.438C845.826 127.693 921.001 178.722 965.35 229.131C970.834 235.364 975.085 243.635 981.314 249.487L980.841 251.232C978.548 251.541 978.815 251.662 976.461 249.622C963.796 238.651 947.728 230.782 933.243 221.974C870.546 183.849 810.328 163.477 738.74 149.978Z"/><path d="M2990.79 596.216C2998.8 595.814 3008.79 596.086 3016.95 596.094C3016.26 661.012 3017.5 726.29 3016.98 791.211C3016.9 800.354 3017.93 852.923 3016.62 858.732C3007.36 858.86 2998.91 858.853 2989.66 858.544C2989.2 800.568 2990.9 741.552 2990.3 683.362C2990.2 673.678 2989.18 601.615 2990.79 596.216Z"/><path d="M2893.76 978.634C2915.84 977.41 2934.76 994.269 2936.07 1016.34C2937.38 1038.42 2920.6 1057.4 2898.53 1058.8C2876.33 1060.21 2857.22 1043.32 2855.9 1021.11C2854.58 998.912 2871.55 979.865 2893.76 978.634ZM2876.44 1041.32C2886.1 1047.35 2894.05 1048.23 2905.26 1046.29C2912.31 1043.87 2916.66 1040.86 2920.02 1034.05C2924.05 1025.86 2923.98 1015.29 2920.86 1006.81C2918.41 1000.15 2913.62 994.887 2907.1 992.017C2900.78 989.234 2894.63 989.774 2887.94 990.243C2881.26 992.308 2876.56 995.012 2873.19 1001.36C2868.54 1010.13 2869.1 1022.78 2872.08 1031.98C2873.12 1035.22 2874.85 1038.32 2876.44 1041.32Z"/><path d="M3164.86 1010.67C3168.52 992.518 3184.12 979.225 3202.62 978.49C3221.12 977.755 3237.72 989.768 3242.81 1007.57C3247.9 1025.37 3240.16 1044.35 3224.06 1053.5C3207.97 1062.65 3187.7 1059.62 3175 1046.14C3166.06 1036.66 3162.28 1023.44 3164.86 1010.67ZM3209.79 1047.48C3218.44 1044.16 3225.06 1039.61 3228.98 1030.91C3232.47 1023.19 3232.18 1013.98 3229.06 1006.19C3226.39 999.527 3221.61 994.236 3214.97 991.4C3209.06 988.876 3203.26 989.678 3197.06 990.286C3188.7 993.162 3182.77 997.364 3178.9 1005.56C3175.36 1013.06 3175.35 1021.92 3178.21 1029.63C3180.87 1036.79 3185.93 1042.91 3192.96 1046.11C3198.29 1048.54 3204.1 1048.36 3209.79 1047.48Z"/><path d="M2996.71 979.708C3010.76 976.299 3025.55 980.716 3035.42 991.267C3045.3 1001.82 3048.73 1016.87 3044.4 1030.66C3040.08 1044.45 3028.66 1054.84 3014.52 1057.85C2993.09 1062.43 2971.96 1048.93 2967.09 1027.56C2962.22 1006.2 2975.41 984.877 2996.71 979.708ZM3013.16 1047.28C3021.32 1044.35 3026.81 1041.08 3030.7 1032.99C3034.54 1025.01 3034.85 1015.03 3031.78 1006.76C3029.29 1000.07 3024.39 994.691 3017.89 991.727C3011.8 988.949 3005.53 989.415 2999.03 990.163C2991.24 992.977 2985.94 996.692 2982.35 1004.39C2978.55 1012.55 2978.69 1023.34 2981.96 1031.66C2984.48 1038.06 2989.03 1043.26 2995.39 1046.04C3001.02 1048.5 3007.2 1048.07 3013.16 1047.28Z"/><path fill="#25AB7A" d="M230.104 415.329C234.098 405.604 241.173 394.82 246.937 384.853C271.006 343.24 303.642 307.36 342.425 279.069C343.445 278.325 344.378 279.083 345.278 279.557C339.428 294.103 319.461 314.763 311.382 330.977C301.17 351.47 289.432 371.009 281.503 392.941C277.178 403.051 272.593 411.874 268.527 422.444C264.212 433.665 261.695 444.549 257.942 455.354C257.485 451.437 258.373 445.975 256.649 443.878L253.521 443.888C252.053 443.256 234.757 423.369 233.577 420.981C235.174 418.652 236.033 417.9 236.213 415.208L235.834 415.01C233.938 415.194 232.01 415.246 230.104 415.329Z"/><path fill="#25AB7A" d="M138.172 412.827C140.226 406.291 148.716 392.188 152.727 385.472C180.364 339.201 208.768 310.482 250.21 277.432C252.938 282.496 238.487 297.941 234.961 303.595C205.772 350.387 181.577 400.565 164.831 453.156C164.354 448.759 165.53 444.906 164.052 441.46L161.172 444.142L159.361 443.811C154.005 436.317 146.479 428.774 140.805 421.509C139.465 419.794 142.901 417.049 141.989 413.526L138.172 412.827Z"/><path d="M2141.1 958.151C2146.55 958.055 2150.72 957.28 2154.96 960.191C2167.72 984.587 2175.98 1013.25 2188.41 1038.13C2190.15 1041.61 2197.21 1052.77 2197.02 1055.98C2195.11 1057.42 2192.65 1056.94 2190.19 1057.09C2175.52 1057.96 2177.5 1035.67 2167.41 1027.93C2165.32 1026.33 2160.28 1026.74 2157.59 1026.78L2126.39 1026.92C2121.02 1037.93 2117.34 1059.8 2102.73 1056.5L2102.02 1054.93C2104 1046.88 2137.68 961.755 2141.1 958.151ZM2129.84 1016.14L2150.39 1016.1C2155.62 1015.97 2161.19 1015.94 2166.38 1015.67C2162.02 1003.76 2156.4 987.396 2150.46 976.498C2149.16 975.995 2148.4 975.637 2147.02 975.341C2141.86 989.492 2135.08 1002.57 2129.84 1016.14Z"/><path d="M3296.83 1003.79C3306.34 973.749 3348.24 969.174 3365 995.181C3366.15 996.961 3366.18 997.249 3367.82 998.556C3369.16 1005.85 3368.98 1014.83 3368.48 1022.29C3353.19 1022.22 3319.96 1021.18 3306 1022.59C3307.38 1028.93 3308 1032.03 3311.5 1037.48C3317.9 1047.46 3327.66 1049.94 3338.93 1047.33C3347.86 1045.26 3354.55 1037.86 3361.08 1031.85C3362.63 1032.03 3363.99 1032.2 3365.14 1032.33C3377.64 1041.83 3348.69 1060.03 3334.64 1058.98C3308.88 1057.05 3301.63 1049.71 3294.99 1026.17C3294.75 1018.01 3294.42 1011.61 3296.83 1003.79ZM3307.53 1012.51L3343.25 1012.47C3347.37 1012.52 3352.15 1013.1 3355.84 1011.03C3357.3 1009.02 3358.2 1008.08 3357.66 1005.42C3356.92 1001.78 3354.42 997.903 3352.63 994.696L3345.91 990.18C3338.75 989.352 3331.26 988.182 3324.07 989.16C3317.7 991.449 3312.75 994.013 3309.85 1000.44C3308.17 1004.16 3307.94 1008.5 3307.53 1012.51Z"/><path d="M1656.87 978.323C1688.21 975.771 1696.66 995.063 1696.55 1022.17C1686.86 1022.69 1640.8 1020.95 1636.35 1023.79C1631.83 1032.1 1640.51 1039.33 1646.56 1043.97C1654.88 1050.35 1677.5 1049.59 1682.52 1039.6C1683.07 1037.74 1684.08 1033.54 1685.88 1032.85C1689.94 1031.28 1693.15 1031.22 1694.89 1035.45C1693.66 1045.36 1678.49 1056.95 1668.99 1058.35C1658.98 1059.83 1647.27 1057.71 1638.81 1052.13C1620.87 1040.31 1619.32 1009.82 1630.57 993.094C1637 983.61 1645.73 980.242 1656.87 978.323ZM1635.72 1012.79C1644.98 1012.67 1654.27 1012.69 1663.52 1012.37C1670.46 1012.13 1677.5 1012.12 1684.41 1011.54C1682.9 1004.19 1681.48 996.811 1674.67 992.42C1668.94 988.727 1661.49 988.904 1654.96 989.323C1648.49 990.916 1642.95 992.58 1639.37 998.616C1636.88 1002.82 1636.13 1007.99 1635.72 1012.79Z"/><path d="M1868.58 1014.09C1868.68 1006.19 1869.55 999.327 1863.61 993.193C1854.68 983.973 1840.92 988.477 1832.52 995.649C1829.78 1001.29 1834.5 1010.84 1823.23 1009.08C1816.41 1004.39 1820.04 994.528 1823.55 988.972C1831.98 975.671 1861.58 975.43 1872.4 985.522C1886.08 998.346 1881.24 1038.75 1880.88 1056.83C1877.44 1056.87 1870.88 1057.27 1867.96 1056.21C1866.68 1053.8 1866.8 1052.95 1866.55 1050.15C1859.27 1051.1 1853.75 1056.57 1846.38 1057.73C1838.89 1058.91 1831.64 1058.05 1824.3 1056.39C1821.7 1053.62 1818.54 1050.49 1816.51 1047.36C1814.59 1039.04 1814.15 1033.53 1817.09 1025.59C1827.65 1010.21 1852.58 1014.61 1868.58 1014.09ZM1850.91 1047.42C1858.58 1043.96 1865.42 1039.1 1868.6 1030.88C1869 1029.83 1868.72 1028.66 1868.64 1027.55C1862.81 1022.03 1849.1 1024.3 1841.22 1024.41C1836.45 1024.92 1831.99 1025.03 1828.62 1028.94C1826.88 1030.95 1826.02 1033.45 1826.25 1036.11C1826.59 1039.94 1829.11 1043.24 1832.13 1045.44C1836.8 1048.83 1842.09 1049.16 1847.62 1048.17C1848.73 1047.97 1849.82 1047.71 1850.91 1047.42Z"/><path d="M2248.34 993.087C2271.4 964.294 2317.68 978.808 2310.48 1017.76C2308.52 1028.38 2311.51 1044.94 2309.5 1055.75C2303.72 1061.67 2297.88 1053.89 2295.97 1048.03C2292.81 1047.74 2290.7 1051.5 2289.12 1053.99C2276.06 1059.78 2263.04 1061.3 2250.26 1053.81C2242.13 1044.17 2242.29 1037.16 2247.31 1025.87C2258.52 1010.03 2280.54 1013.61 2298.04 1014C2298.07 1005.65 2298.77 1001.74 2292.77 995.223C2285.64 987.497 2271.05 985.307 2263.36 993.093C2259.13 997.378 2259.11 1006.72 2251.67 1009.45C2248.59 1007.8 2249.65 1008.76 2247.77 1005.51C2247.64 1000.69 2247.85 997.913 2248.34 993.087ZM2282.23 1046.64C2287.03 1044.77 2290.59 1042.5 2294.74 1039.51C2295.86 1035.61 2297.41 1031.64 2296.7 1027.55C2295.36 1025.48 2294.75 1024.34 2292.2 1023.62C2286.2 1021.91 2275.68 1024.21 2269 1024.34C2263.74 1025.66 2258.89 1027.66 2255.88 1032.47C2254.55 1034.58 2254.2 1037.16 2255 1039.53C2256.2 1043.05 2259.27 1045.4 2262.58 1046.79C2268.72 1049.36 2275.97 1048.28 2282.23 1046.64Z"/><path d="M3113.31 958.153L3126.48 958.243L3126.72 958.682C3137.85 979.411 3143.35 1003.92 3154.76 1025.4C3158.18 1034.44 3163.57 1047.28 3168.04 1055.73C3143.56 1058.59 3153.38 1041.04 3142.95 1029.35C3138.08 1023.88 3107.25 1026.14 3099.41 1026.26C3094.81 1034.73 3089.02 1053.79 3081.15 1056.88C3078.09 1056.92 3075.64 1057.38 3073.25 1055.72C3073.02 1052.08 3109.88 969.204 3113.31 958.153ZM3101.36 1016.33L3122.5 1016.49L3137.81 1016.58C3131.7 1004.91 3127.5 988.853 3121.7 976.694C3121.47 976.205 3118.8 974.559 3117.99 974.227C3113.26 989.211 3107.71 1002.07 3101.36 1016.33Z"/><path d="M2644.31 978.358C2664.62 979.424 2676.09 986.864 2676.14 1008.86C2676.16 1017.79 2678.38 1049.56 2675.52 1056.14C2671.7 1057.21 2670.25 1056.87 2666.42 1056.48C2664.01 1054.72 2664.37 1052.05 2663.61 1048.2C2660.89 1047.14 2652.54 1055.93 2646.34 1057.08C2623.69 1061.29 2607.22 1054.36 2611.36 1028.76C2626.04 1006.33 2640.81 1018.04 2660.67 1012.63C2666.33 1011.09 2660.3 986.671 2646.38 987.129C2628.93 987.703 2628.98 1000.95 2621.93 1007.61C2618.44 1008.83 2618.01 1008.87 2614.36 1008.27C2606.65 1002.21 2614.23 993.653 2619.38 989.017C2627.38 981.822 2633.89 979.561 2644.31 978.358ZM2649.9 1046.31C2655.26 1044.21 2660.75 1042.47 2663.09 1036.65C2664.52 1033.1 2664.14 1028.77 2664.04 1025.01C2654.08 1023.87 2644.2 1023.4 2634.21 1024.32C2629.41 1025.76 2624.22 1027.77 2621.58 1032.39C2620.55 1034.21 2620.26 1036.21 2620.87 1038.23C2621.93 1041.76 2625.11 1044.25 2628.33 1045.73C2635.07 1048.84 2642.89 1048.16 2649.9 1046.31Z"/><path d="M2334.76 1057.07C2332.69 1057.08 2323.31 1057.63 2323.22 1054.28C2322.54 1030.76 2322.11 1006.28 2323.42 982.743C2323.47 981.797 2324.74 980.951 2325.59 980.903C2335.09 978.577 2332.39 986.029 2336.35 988.064C2339.22 986.195 2347.86 980.303 2350.29 979.719C2367.22 974.482 2372.68 980.509 2385.64 989.865C2391.37 994.007 2393.38 981.998 2403.12 980.133C2413.23 978.199 2421.1 976.893 2430.84 982.038C2438.47 986.068 2441.88 991.653 2444.17 999.522C2445.89 1015.63 2442.77 1045.92 2445.04 1057.54C2442.27 1057.33 2439.17 1057.32 2436.47 1056.72C2425.52 1054.29 2438.69 1008.98 2429.07 996.506C2425.42 991.775 2419.3 990.196 2413.62 989.781C2406.91 989.289 2400.56 990.433 2395.34 994.854C2394.21 996.328 2391.19 1000.25 2391.04 1001.89C2389.96 1013.55 2388.51 1033.43 2390.13 1044.66C2390.04 1048.44 2390.27 1053.06 2388.84 1056.4C2385.66 1057.09 2380.32 1057.25 2377.83 1055.11C2376.72 1049.3 2377.13 1009.96 2377.06 1001.79C2366.84 987.625 2354.43 985.503 2339.4 994.88C2331.72 1003.3 2333.09 1013.06 2332.95 1024.04C2332.83 1034.02 2332.18 1046.91 2334.6 1056.42L2334.76 1057.07Z"/><path d="M3379.98 995.259C3397.52 971.343 3434.15 971.235 3438.92 1003.46C3439.33 1006.23 3440.39 1056.35 3440.36 1056.46C3436.01 1057.25 3434.82 1057.14 3430.46 1056.92L3429 1055.53C3429.25 1053.11 3429.43 1051.35 3429.45 1048.91L3427.93 1047.98C3423.2 1049.13 3419 1053.06 3414.56 1054.98C3393.45 1064.07 3378.72 1058.52 3372.85 1036.65C3380.79 1010.6 3402.88 1012.5 3426 1014.33C3426.25 1006.16 3427.38 1000.31 3421.4 993.731C3413.72 985.275 3402.32 987.55 3394.74 994.89C3387.82 1002.29 3392.83 1010.45 3378.53 1006.05C3379.1 1002.57 3379.52 998.785 3379.98 995.259ZM3412 1047.25C3417.84 1044.74 3424.36 1040.79 3426.66 1034.42C3427.28 1032.68 3427.05 1031.23 3426.59 1029.49C3424.41 1026.09 3422.04 1024.88 3418.16 1023.95C3413.27 1022.77 3406.19 1023.81 3401.13 1024.24C3396 1025.02 3391.52 1025.62 3388.17 1030.09C3386.56 1032.23 3385.96 1034.66 3386.38 1037.3C3386.94 1040.83 3389.35 1043.66 3392.27 1045.58C3398.18 1049.48 3405.4 1048.69 3412 1047.25Z"/><path d="M2506.98 1015.79C2507.08 1007.17 2508.05 999.79 2501.57 992.81C2493.26 983.855 2480.57 988.787 2472.99 995.939C2469.72 999.029 2471.32 1008.63 2463.64 1008.44C2460.49 1008.45 2458.4 1008.62 2456.05 1006.63C2455.3 978.27 2493.1 972.493 2513.94 987.288C2522.71 1005.23 2517.92 1025.48 2518.51 1044.89C2518.61 1048.19 2518.07 1053.05 2516.26 1055.84C2509.75 1058.72 2504.6 1057 2503.22 1049.73C2499.54 1049.62 2495.51 1053.98 2492.58 1056.58C2480.83 1058.35 2460.8 1059.22 2454.63 1046.08C2452.72 1038.24 2453.83 1034.36 2455.44 1026.59C2468.83 1009.75 2487.63 1013.91 2506.98 1015.79ZM2491 1047.25C2498.19 1044.2 2503.85 1040.02 2506.89 1032.45C2507.58 1030.73 2507.51 1029.28 2507.1 1027.51C2505.4 1025.19 2503.79 1024.29 2500.93 1023.83C2494.23 1022.75 2485.99 1023.58 2479.23 1024.18C2474.33 1025.66 2468.86 1027.39 2466.39 1032.36C2465.28 1034.59 2465.19 1037.07 2466.21 1039.35C2467.91 1043.17 2472.03 1045.84 2475.92 1047.08C2480.91 1048.67 2485.92 1048.16 2491 1047.25Z"/><path fill="#25AB7A" d="M325.575 859.596C349.549 872.804 373.671 890.297 398.34 903.757C431.163 921.667 461.34 933.57 496.271 946.245C482.749 946.681 476.898 943.553 464.506 938.454C459.746 943.55 448.053 954.825 446.824 960.815C449.386 966.452 461.783 964.92 465.235 976.175C408.997 948.717 363.724 908.684 325.575 859.596Z"/><path fill="#25AB7A" d="M435.805 1052.65C423.03 1051.2 366.487 999.445 355.711 987.323C348.955 979.724 340.685 967.309 332.292 959.79L331.41 959.014L331.379 956.873L332.739 955.568C339.269 960.74 346.604 964.629 353.291 969.328C386.498 992.664 422.834 1010.08 460.399 1025.5L456.25 1026.48L456.372 1027.68C462.077 1030.87 465.859 1030.9 471.719 1034.26C467.855 1038.53 453.76 1053.29 452.156 1057.31C445.534 1057.86 442.656 1047.54 435.805 1052.65Z"/><path d="M1892.21 955.87C1896.11 955.69 1899.31 955.042 1902.54 956.936C1906.84 961.94 1905.08 980.345 1906.02 990.278C1918.85 977.844 1936.19 972.806 1950.68 984.408C1964.58 995.522 1959.84 1039.55 1960.49 1056.59C1956.42 1056.75 1951.33 1056.49 1947.17 1056.4L1946.86 1009.64L1946.8 1008.99C1944.86 988.129 1933.07 988.787 1916.19 991.421C1911.31 995.455 1909.49 997.495 1905.35 1002.34C1905.1 1011.11 1907.01 1049.22 1906.06 1054.16C1902.46 1058.14 1898.21 1058.32 1893.88 1054.97C1893.39 1051.08 1893.23 1047.24 1893.25 1043.32C1893.4 1014.16 1892.77 985.025 1892.21 955.87Z"/><path d="M2688.72 956.178L2696.17 956.19C2708.52 963.577 2692.15 984.468 2702.93 989.376C2707.98 979.317 2727.04 977.579 2736.57 979.249C2752.86 982.103 2756.31 1003.29 2755.8 1016.99C2755.4 1027.72 2757.28 1044.61 2754.87 1054.8C2750.87 1058.58 2746.67 1057.04 2743.13 1053.83C2741.4 1050.3 2742.21 1016.94 2742.2 1010.75C2742.6 1002.61 2738.39 991.709 2729.51 990.18C2687.33 982.911 2705.5 1035.88 2700.02 1056.36C2697.4 1057.61 2696.42 1057.18 2693.39 1056.81C2686.68 1052.34 2688.55 1038.25 2689.06 1030.82C2690.17 1014.58 2684.27 969.507 2688.72 956.178Z"/><path d="M1734.62 958.238C1738.29 957.947 1742.69 957.533 1745.92 959.107C1747.37 967.048 1746.37 992.615 1747.4 1004.39C1761.43 994.822 1783.29 967.598 1799.3 958.636C1800.89 957.746 1810.65 958.164 1813.21 958.234C1808.05 961.312 1764.56 1002.16 1757.41 1008.9L1781.68 1030.17C1793.34 1038.34 1804.55 1047.1 1815.57 1056.1C1810.37 1056.19 1804.74 1055.94 1799.52 1055.81C1790.12 1049.59 1782.52 1044.14 1773.75 1037.08C1765.59 1030.51 1755.93 1021.41 1747.26 1015.99C1747.22 1021.91 1747.37 1052.24 1746.23 1056.04C1742.91 1057.66 1740.22 1057.25 1737.33 1054.98C1736.12 1053.15 1735.01 1050.35 1735.17 1048.09C1737.17 1018.23 1735.71 988.145 1734.62 958.238Z"/><path fill="#25AB7A" d="M876.962 284.739C877.905 277.91 868.474 280.595 865.06 274.108C866.45 267.783 872.01 267.347 874.133 264.47C885.421 249.176 882.507 263.211 895.196 260.428C903.083 265.452 915.344 274.317 922.335 279.925C932.818 288.334 981.774 334.458 982.429 343.425C979.693 343.938 978.246 342.852 975.67 341.107C956.59 328.184 937.173 315.873 917.011 304.691C905.077 298.072 887.982 291.422 876.962 284.739Z"/><path d="M2795.65 956.168C2799.72 956.038 2803.52 955.389 2806.9 957.301C2810.19 963.792 2805.24 1004.33 2805.1 1014.5C2818.06 1002.44 2830.6 991.797 2844.71 981.041C2849.32 980.436 2855.47 980.539 2860.24 980.478C2843.25 994.885 2834.06 1001.52 2817.51 1018.1C2824.79 1026.34 2833.05 1033.46 2841.4 1040.57C2846.54 1044.88 2858.43 1051.73 2859.93 1056C2847.3 1063.26 2814.65 1030.01 2805.63 1021.48C2805.71 1031.08 2808.53 1046.16 2805.66 1053.52C2802.3 1056.85 2797.55 1058.06 2794.1 1054.28C2792.06 1040.66 2793.79 969.48 2795.65 956.168Z"/><path d="M1972.06 980.261C1975.83 980.013 1979.79 979.379 1983.41 980.689C1991.93 992.929 1968.55 1054.22 2009.8 1048.08C2041.26 1043.4 2020.08 992.75 2029.39 980.592C2034.14 979.516 2035.68 979.325 2039.21 982.426C2041.01 986.495 2040 996.169 2039.83 1001.25C2039.73 1009.32 2040.54 1051.86 2036.84 1055.91C2033.52 1056.68 2033.06 1056.68 2029.68 1056.25C2026.11 1053.4 2028.74 1054.56 2026.79 1049.52C2020.58 1049.81 2013.75 1057.96 2001.16 1058.45C1962.68 1059.93 1972.16 1009.01 1972.06 980.261Z"/><path fill="white" fill-opacity="0.011764706" d="M1939.63 512.003C1937.58 512.466 1938.54 512.601 1936.68 511.512C1932.77 479.942 1933.72 452.914 1933.79 421.109L1934.32 312.148C1934.68 270.396 1934.26 228.487 1935.16 186.769C1935.38 176.225 1934.95 161.778 1935.57 151.923C1938.34 150.737 1937.54 150.56 1939.69 151.343C1941.66 156.913 1940.53 205.75 1940.49 214.927L1939.49 425.675L1939.81 482.326C1939.88 489.079 1940.46 505.838 1939.63 512.003Z"/><path d="M1556.26 958.221C1565.01 957.658 1625.65 957.737 1631.89 959.475C1633.17 962.371 1632.68 966.526 1632.6 969.868L1601.11 970.073C1600.67 989.159 1600.73 1008.13 1600.75 1027.22C1600.74 1031.93 1601.02 1052.19 1600.05 1055.42C1597.55 1057.05 1592.96 1057.53 1590.25 1056.22C1586.34 1046.72 1588.64 984.875 1589.18 969.778C1578.89 969.323 1564.25 972.001 1557.51 967.813C1555.31 963.772 1556.13 963.515 1556.26 958.221Z"/><path d="M2201.25 979.456C2201.33 974.113 2200.3 964.97 2202.26 960.864C2216.15 949.805 2213.49 974.19 2213.22 980.177C2222.04 980.176 2231.98 978.803 2239.23 983.99L2239.23 987.389C2234.17 992.343 2219.28 991.039 2212.75 990.866C2212.08 1004.26 2210.62 1029.63 2215.06 1042.53C2217.19 1048.72 2230.21 1045.05 2236.96 1047.2C2237.86 1049.65 2239.45 1053.67 2240.14 1056.04C2191.6 1067.21 2200.86 1024.89 2200.46 991.156C2194.77 991.043 2192.37 992.064 2188.61 987.634C2188.3 980.442 2195.85 980.058 2201.25 979.456Z"/><path d="M3255.62 958.752C3261.03 958.408 3262.63 957.669 3266.34 960.921C3268.11 965.024 3267.21 974.584 3267.16 979.822C3274.11 980.06 3288.28 978.246 3293.1 982.845C3294.23 986.276 3294.21 984.82 3293.14 988.34C3288.54 992.521 3274.57 990.77 3267.09 990.811C3266.69 1010 3264.19 1030.12 3270.98 1047.58C3278.64 1046.97 3282.91 1046.37 3290.57 1047.75C3293.43 1050.12 3294.8 1051.61 3293.63 1055.22C3288.24 1059.87 3270.92 1059.55 3265.16 1055.14C3248.01 1041.81 3258.36 1013.49 3255.17 995.089C3253.78 987.067 3244.36 993.621 3243.03 985.284C3246.22 978.87 3248.62 979.629 3255.38 979.062L3255.62 958.752Z"/><path fill="#65FD01" fill-opacity="0.90588236" d="M983.913 955.447C939.665 1024.5 845.259 1080.32 766.644 1099.3C770.266 1094.59 776.151 1093.25 781.708 1091.6C819.923 1080.69 852.885 1063.14 886.294 1042.22C919.838 1021.21 941.539 998.985 968.106 970.326C964.667 971.299 951.105 980.755 947.018 983.367C928.228 995.379 831.661 1045.24 814.611 1039.62L813.692 1039.31C859.746 1023.89 893.957 1009.81 936.135 985.101C947.656 978.352 974.739 959.38 983.913 955.447Z"/><path fill="white" fill-opacity="0.027450981" d="M2006.28 150.075L2008.24 151.676C2009.11 160.808 2008.48 181.703 2008.48 191.499L2008.49 270.126C2008.63 338.46 2013.87 407.264 2007.57 475.348C2006.91 482.407 2008.84 506.113 2006.16 510.924C2004.35 489.509 2005.58 455.372 2005.66 433.099L2005.18 318.347L2004.96 203.758C2004.96 194.165 2004.44 157.726 2006.28 150.075Z"/><path d="M3483.95 980.373C3486.48 980.288 3490.05 979.787 3492.39 980.774C3493.68 981.32 3494.32 982.089 3494.78 983.405C3495.53 985.546 3495.87 988.979 3494.94 991.058C3489.07 993.262 3483.25 992.889 3477.27 994.197C3471.55 995.448 3468.22 1000.91 3465.19 1005.38C3463.68 1018.3 3467.03 1048.23 3464.44 1056.08C3463.73 1056.4 3463.28 1056.64 3462.55 1056.83C3459.77 1057.52 3455.58 1057.26 3453.2 1055.67C3453.73 1037.62 3448.34 996.664 3452.13 981.906C3452.77 981.586 3453.16 981.355 3453.81 981.147C3456.56 980.273 3459.61 980.696 3462.09 982.084C3464.28 985.255 3462.99 991.032 3463.4 994.928L3464.38 992.273C3471.99 986.754 3474.11 982.326 3483.95 980.373Z"/><path d="M2586.54 957.906C2590.17 958.013 2596.07 957.61 2598.51 959.735C2599.5 993.094 2599.82 1021.39 2599.31 1054.79C2596.35 1057.18 2591.91 1056.97 2587.92 1057.16C2587.2 1055.65 2587.01 967.582 2586.54 957.906Z"/><path fill="white" fill-opacity="0.015686275" d="M1719.05 794.41L1723.47 793.643C1725.7 789.966 1721.96 620.496 1725.58 614.473C1726.02 613.734 1727.04 613.743 1727.84 613.529L1729.16 614.482C1730.01 621.422 1729.44 632.75 1729.45 640.249L1729.56 689.006L1729.63 762.48C1729.65 776.194 1730.3 793.198 1729.16 806.566C1725.05 802.127 1722.63 799.275 1719.05 794.41Z"/><path fill="white" fill-opacity="0.015686275" d="M3144.4 429.301C3142.56 423.197 3144.41 387.202 3144.44 378.008L3143.67 251.041C3145.69 249.088 3145.41 249.757 3149.21 249.657C3150.44 280.97 3149.96 314.097 3149.87 345.527C3149.81 368.058 3152.63 409.491 3144.4 429.301Z"/><path d="M2772.23 980.212C2775.07 980.128 2777.79 979.731 2780.36 981.127C2782.36 990.903 2781.23 1040.62 2780.36 1051.44C2780.14 1054.16 2780.2 1054.69 2778.11 1056.44C2774.62 1056.38 2771.2 1056.55 2767.87 1055.36C2767.24 1042.38 2765.57 992.157 2768.84 982.389C2769.17 981.398 2771.27 980.706 2772.23 980.212Z"/><path d="M2060.02 980.085C2063.81 981.03 2064.8 980.508 2066.46 983.121C2067.98 1006.43 2065.75 1033.06 2066.5 1056.75C2063.07 1056.52 2056.84 1056.73 2053.2 1056.74C2053.45 1045.79 2054.77 988.626 2052.69 981.781C2054.81 981.43 2057.85 980.601 2060.02 980.085Z"/><path fill="white" fill-opacity="0.015686275" d="M2972.27 429.372C2970.31 428.592 2968.9 427.097 2967.31 425.681C2965.51 410.385 2964.8 253.248 2966.98 250.094L2971.29 249.65C2971.69 287.755 2971.11 325.798 2971.2 363.887C2971.25 384.679 2970.08 408.867 2972.27 429.372Z"/><path d="M2533.05 980.404C2536.92 980.267 2540.84 980.5 2544.71 980.613C2544.16 1006.01 2543.19 1031.41 2543.67 1056.81C2541.31 1056.94 2538.84 1057.17 2536.49 1057.02C2534.15 1056.88 2533.19 1056.35 2531.75 1054.6C2531.23 1047.1 2531.75 984.342 2533.05 980.404Z"/><path fill="white" fill-opacity="0.011764706" d="M1942.6 149.368C1950.61 147.624 2000.95 147.874 2008.85 149.991C2011.85 152.589 2010.85 194.271 2010.85 201.32L2010.88 282.755L2011.62 504.184C2011.6 506.951 2011.79 509.993 2010.45 512.173C2008.78 512.26 2007.66 512.387 2005.98 512.128L2006.16 510.924C2008.84 506.113 2006.91 482.407 2007.57 475.348C2013.87 407.264 2008.63 338.46 2008.49 270.126L2008.48 191.499C2008.48 181.703 2009.11 160.808 2008.24 151.676L2006.28 150.075C1985.53 149.047 1963.26 150.708 1942.6 149.368Z"/><path fill="white" fill-opacity="0.015686275" d="M2214.46 149.215C2221.91 148.026 2236.51 148.379 2244.54 148.401L2293.13 148.55C2337.28 148.573 2391.64 147.137 2435.02 148.626C2434.93 153.817 2434.77 200.927 2433.87 202.693C2432.07 203.081 2431.56 203.279 2429.69 203.334C2428.49 189.185 2429.25 164.87 2429.33 149.898C2412.71 149.175 2392.15 149.747 2375.06 149.748L2271.64 149.752C2255.65 149.753 2229.72 150.458 2214.46 149.215Z"/><path fill="white" fill-opacity="0.0078431377" d="M2940.95 740.408C2949.53 749.092 2947.06 793.019 2946.97 806.737C2946.91 815.48 2946.82 853.506 2943.17 858.394L2941.87 857.428C2940.86 845.746 2941.4 830.357 2941.5 818.373C2941.86 793.281 2941.65 765.464 2940.95 740.408Z"/><path fill="white" fill-opacity="0.011764706" d="M3388.7 725.641C3396.79 744.898 3395.14 766.6 3395.15 787.322L3395.1 857.942L3392.45 857.671C3390.92 855.771 3391.65 798.624 3391.27 791.227C3390.21 770.59 3388.03 746.227 3388.7 725.641Z"/><path fill="white" fill-opacity="0.0078431377" d="M2587.92 1057.16C2584.99 1057.58 2583.89 1057.27 2581.8 1055.43C2580.46 1047.69 2585.51 1023.39 2585.06 1014.27C2584.5 1002.84 2577.7 968.748 2582.83 958.952L2586.54 957.906C2587.01 967.582 2587.2 1055.65 2587.92 1057.16Z"/><path fill="white" fill-opacity="0.011764706" d="M2060.02 980.085C2064.3 979.443 2067.37 978.719 2070.99 981.21C2071.7 991.108 2072.76 1050.97 2070.97 1055.65C2069.01 1056.8 2068.7 1056.7 2066.5 1056.75C2065.75 1033.06 2067.98 1006.43 2066.46 983.121C2064.8 980.508 2063.81 981.03 2060.02 980.085Z"/><path d="M1827.59 961.956C1836.69 961.925 1860.63 961.376 1867.96 962.707C1869.71 965.277 1869.14 966.984 1869.27 970.573C1862.89 971.214 1835.34 971.292 1829.27 970.487C1827.31 967.487 1827.86 965.966 1827.59 961.956Z"/><path fill="white" fill-opacity="0.015686275" d="M2944.5 262.212C2944.44 258.109 2943.96 254.031 2945.75 250.424L2946.93 250.235C2950.66 257.704 2953.1 308.894 2949.97 313.285C2948.39 313.32 2946.82 313.471 2945.31 313.079C2944.39 297.744 2944.71 277.895 2944.5 262.212Z"/><path fill="white" fill-opacity="0.011764706" d="M2053.2 1056.74L2049.01 1055.94C2046.38 1051.66 2049.22 991.323 2050.96 982.501L2052.69 981.781C2054.77 988.626 2053.45 1045.79 2053.2 1056.74Z"/><path fill="white" fill-opacity="0.050980393" d="M2444.17 999.522C2446.24 1000.27 2447.65 1000.28 2448.52 1002.19C2451.25 1008.17 2448.23 1024.7 2449.15 1029.62C2452.02 1028.29 2452.16 1027.19 2455.44 1026.59C2453.83 1034.36 2452.72 1038.24 2454.63 1046.08C2452.19 1045.62 2451.34 1045.43 2449.31 1044.01C2449.14 1048.12 2449.99 1054.39 2448.34 1057.03C2447.49 1057.17 2445.83 1057.52 2445.04 1057.54C2442.77 1045.92 2445.89 1015.63 2444.17 999.522Z"/><path fill="white" fill-opacity="0.011764706" d="M1310.74 570.682C1320.93 579.519 1320.45 639.248 1310.72 647.407C1313.1 627.53 1312.93 590.395 1310.74 570.682Z"/><path fill="white" fill-opacity="0.011764706" d="M2334.76 1057.07L2334.6 1056.42C2332.18 1046.91 2332.83 1034.02 2332.95 1024.04C2333.09 1013.06 2331.72 1003.3 2339.4 994.88C2339.25 1002.15 2338.58 1053.89 2337.3 1056.25L2334.76 1057.07Z"/><path fill="white" fill-opacity="0.027450981" d="M3154.76 1025.4C3156.76 1025.74 3157.75 1026.09 3159.72 1025.53C3161.85 1021.25 3159.16 1019.71 3160.06 1013.83C3162.07 1010.96 3160.95 1011.88 3164.86 1010.67C3162.28 1023.44 3166.06 1036.66 3175 1046.14L3169.83 1046.14C3167.17 1049.97 3169.42 1050.85 3168.04 1055.73C3163.57 1047.28 3158.18 1034.44 3154.76 1025.4Z"/><path fill="white" fill-opacity="0.015686275" d="M2835.75 249.48L2838.97 249.781C2844.31 256.734 2835.45 268.449 2842.31 275.524L2847.44 275.698L2835.03 291.429C2834.47 280.967 2834.17 259.432 2835.75 249.48Z"/><path fill="white" fill-opacity="0.011764706" d="M2390.13 1044.66C2388.51 1033.43 2389.96 1013.55 2391.04 1001.89C2391.19 1000.25 2394.21 996.328 2395.34 994.854C2395.56 1014.77 2394.66 1024.14 2391.19 1043.63L2390.13 1044.66Z"/><path fill="white" fill-opacity="0.015686275" d="M3140.6 488.95C3143.15 485.698 3145.23 483.494 3148.09 480.509C3149.5 490.756 3150.52 502.284 3150.45 512.629C3140.43 512.459 3145.43 498.998 3143.23 490.466L3140.6 488.95Z"/><path fill="white" fill-opacity="0.074509807" d="M2236.96 1047.2L2238.54 1047.42C2242.1 1044.37 2236.44 1030.12 2247.31 1025.87C2242.29 1037.16 2242.13 1044.17 2250.26 1053.81C2247.62 1053.34 2246.38 1053 2243.72 1053.16L2242.22 1056.09L2240.14 1056.04C2239.45 1053.67 2237.86 1049.65 2236.96 1047.2Z"/><path fill="white" fill-opacity="0.011764706" d="M3367.82 998.556C3371.67 1001 3372.14 1002.26 3375.79 1001.72C3377.66 999.256 3378.46 997.963 3379.98 995.259C3379.52 998.785 3379.1 1002.57 3378.53 1006.05L3374.92 1006.56C3372.36 1012.42 3376.4 1016.28 3372.64 1022.14L3368.48 1022.29C3368.98 1014.83 3369.16 1005.85 3367.82 998.556Z"/><path d="M2769.42 956.095C2775 955.774 2779.31 954.326 2782.61 959.114C2782.65 962.652 2782.57 963.392 2781.76 966.837C2776.22 967.022 2772.19 968.217 2768.54 963.792C2768.37 960.163 2768.48 959.612 2769.42 956.095Z"/><path d="M2531.65 955.958C2535.53 955.939 2540.83 955.174 2543.63 957.204C2545.41 960.14 2544.82 963.371 2544.7 966.976C2540.77 967.196 2536.7 967.95 2533.4 966.223C2531.18 963.389 2531.7 959.804 2531.65 955.958Z"/><path fill="#65FD01" fill-opacity="0.90196079" d="M1060.34 276.521C1070.17 282.868 1076.68 287.306 1084.85 295.778C1081.52 295.507 1080.18 295.022 1077.13 293.718C1075.8 296.02 1076.38 298.037 1076.44 301.089C1071.04 293.522 1065.37 284.417 1060.34 276.521Z"/><path fill="#11929E" fill-opacity="0.9254902" d="M979.795 910.296L978.882 918.743C980.13 920.258 979.686 919.986 981.274 921.018C978.648 924.069 975.355 926.357 972.356 929.02C969.166 931.852 969.26 929.699 965.977 932.877C966.378 925.637 974.994 916.439 979.795 910.296Z"/><path fill="#11929E" fill-opacity="0.89411765" d="M1168.59 924.133C1168.42 927.094 1168.25 930.036 1168.03 932.995C1170.31 933.189 1172.4 932.269 1174.64 931.992C1170.3 935.97 1163.68 942.87 1158.11 943.965L1157.52 942.48C1159.7 936.218 1164.73 929.879 1168.59 924.133Z"/><path fill="white" fill-opacity="0.011764706" d="M3294.99 1026.17C3286.7 1022.36 3289.06 1012.68 3291.67 1005.46C3294.11 1003.18 3292.82 1003.73 3296.83 1003.79C3294.42 1011.61 3294.75 1018.01 3294.99 1026.17Z"/><path fill="white" fill-opacity="0.011764706" d="M1816.51 1047.36C1806.92 1043.52 1805.97 1029.32 1817.09 1025.59C1814.15 1033.53 1814.59 1039.04 1816.51 1047.36Z"/><path d="M3464.39 294.016C3488.65 254.731 3517.43 238.469 3564.27 242.899C3596.95 246.422 3624.12 268.01 3634.69 299.141C3636.37 304.093 3640.21 318.458 3643 321.578L3643 512.728C3622.72 512.766 3602.39 512.887 3582.11 512.518L3582.09 405.17C3582.14 382.046 3583.38 360.116 3579.87 337.273C3569.91 272.348 3484.95 285.052 3474.84 341.665C3471.01 363.097 3472.34 386.119 3472.36 407.883L3472.94 512.105L3413.87 512.038L3413.5 435.867C3413.12 408.936 3416.48 345.464 3407.58 323.702C3406.82 319.469 3400.41 311.028 3397.36 307.824C3368.7 276.732 3315.72 299.091 3307.52 337.003C3303.19 357.046 3304.69 383.579 3304.63 404.33L3304.96 512.391C3287.57 513.195 3261.92 512.765 3244.51 512.42L3244.5 250.252C3262.72 249.646 3286.35 249.9 3304.5 250.333C3304.42 261.382 3304.39 272.082 3304.66 283.145C3335.36 250.36 3364.48 233.073 3411.26 245.99C3438.47 253.502 3451.49 270.348 3464.39 294.016Z"/><path d="M3615.94 595.722C3623.75 596.005 3635.99 595.706 3643 596.417L3643 858.786C3634.36 859.308 3622.86 859.002 3614.01 859.013C3613.97 854.181 3614.53 831.546 3612.43 828.566C3605.57 836.264 3599.55 842.723 3591.45 849.096C3556.62 876.488 3503.73 866.838 3477.64 832.08C3445.44 789.433 3451.4 727.605 3494.62 694.634C3521.69 673.981 3561.03 672.126 3589.24 691.797C3597.88 697.818 3603.3 705.507 3609.47 713.798C3610.59 714.34 3611.7 714.911 3612.81 715.473C3614.17 713.232 3615.51 607.486 3615.94 595.722ZM3556.31 838.081C3593.18 834.44 3620.13 801.619 3616.52 764.747C3612.92 727.874 3580.13 700.892 3543.25 704.457C3506.32 708.028 3479.29 740.879 3482.9 777.805C3486.51 814.731 3519.39 841.727 3556.31 838.081Z"/><defs><linearGradient id="gradient_6" gradientUnits="userSpaceOnUse" x1="868.17615" y1="1197.8535" x2="705.81329" y2="1057.2716"><stop offset="0" stop-color="#6F0"/><stop offset="1" stop-color="#42D144"/></linearGradient></defs><path fill="url(#gradient_6)" d="M537.274 1146.39C699.246 1175.9 858.536 1141.04 995.812 1049.33C996.927 1048.58 998.109 1047.69 999.184 1046.89C994.852 1054.09 986.574 1064.02 980.851 1070.32C905.965 1152.69 795.033 1198.17 685.226 1206.81C682.036 1207.06 677.941 1207.4 674.825 1208L631.306 1208C624.91 1206.49 601.77 1205.79 592.81 1204.6C558.423 1200.03 529.563 1193.32 496.853 1181.84C488.2 1179.36 470.919 1171.96 462.791 1168.43C416.66 1148.47 375.506 1119.66 341.313 1082.8C336.603 1077.72 315.694 1058.48 316.918 1052.56C319.36 1052.36 321.075 1052.75 323.134 1054.29C387.303 1102.4 459.67 1130.45 537.274 1146.39Z"/><path fill="#30BB64" d="M496.853 1181.84C488.2 1179.36 470.919 1171.96 462.791 1168.43C416.66 1148.47 375.506 1119.66 341.313 1082.8C336.603 1077.72 315.694 1058.48 316.918 1052.56C319.36 1052.36 321.075 1052.75 323.134 1054.29C387.303 1102.4 459.67 1130.45 537.274 1146.39L533.925 1147.13L534.477 1148.29C550.497 1152.96 599.541 1158.55 617.338 1159.12C612.617 1165.08 585.469 1199.38 580.101 1199.01C554.235 1197.2 526.638 1187.36 501.586 1180.62C500.98 1180.46 497.637 1181.57 496.853 1181.84Z"/><path fill="#55E920" d="M643.058 0L681.49 0C705.453 3.72164 727.957 4.04571 752.629 8.86771C826.403 23.2863 915.476 62.5415 966.319 119.218L966.813 119.771C963.154 119.343 958.887 118.142 956.229 119.653C954.71 124.099 957.64 128.336 958.376 132.462C955.924 131.227 952.908 129.361 950.548 127.902C851.484 66.6522 732.235 44.4468 616.978 52.689C595.806 54.2031 575.559 57.5272 554.615 60.3571C540.576 65.6271 516.827 68.3694 501.251 72.9638C442.457 90.3058 378.94 115.84 328.383 150.965C326.864 150.846 326.826 150.668 325.474 149.907L324.582 145.768C342.245 126.472 359.707 109.266 380.224 92.8978C433.374 50.4992 525.469 11.8297 593.785 5.98308C607.018 2.62308 628.735 2.25275 643.058 0Z"/><defs><linearGradient id="gradient_7" gradientUnits="userSpaceOnUse" x1="701.90033" y1="-8.9742317" x2="911.73907" y2="172.78873"><stop offset="0" stop-color="#47D83A"/><stop offset="1" stop-color="#189C91"/></linearGradient></defs><path fill="url(#gradient_7)" d="M643.058 0L681.49 0C705.453 3.72164 727.957 4.04571 752.629 8.86771C826.403 23.2863 915.476 62.5415 966.319 119.218L966.813 119.771C963.154 119.343 958.887 118.142 956.229 119.653C954.71 124.099 957.64 128.336 958.376 132.462C955.924 131.227 952.908 129.361 950.548 127.902C851.484 66.6522 732.235 44.4468 616.978 52.689C595.806 54.2031 575.559 57.5272 554.615 60.3571C554.876 60.044 555.136 59.7292 555.419 59.4363C563.168 51.4213 638.279 48.5205 652.45 48.51C659.892 42.0201 683.817 13.8113 690.083 5.1695C684.506 -0.84911 607.913 7.47993 593.785 5.98308C607.018 2.62308 628.735 2.25275 643.058 0Z"/><defs><linearGradient id="gradient_8" gradientUnits="userSpaceOnUse" x1="10.093888" y1="779.89447" x2="151.65279" y2="657.19189"><stop offset="0" stop-color="#65FE01"/><stop offset="1" stop-color="#42D144"/></linearGradient></defs><path fill="url(#gradient_8)" d="M45.1419 398.93C50.8189 401.874 62.2089 421.248 68.1762 425.371L70.4864 425.253C70.5594 429.573 70.5557 435.081 70.8872 439.297C69.8119 449.407 61.2417 475.987 58.8797 487.954C55.3871 505.649 54.1237 519.447 52.0498 537.132C37.2 669.981 75.9108 806.428 142.816 919.671C145.884 924.865 154.8 937.629 156.122 942.098L155.067 942.623C150.004 939.851 133.807 925.696 129.148 921.138C74.1414 867.509 38.9002 798.106 16.8692 725.147C10.536 704.173 8.20924 680.405 4.59564 658.753C3.59618 652.765 3.5857 637.954 0 633.854L0 564.432C1.22891 567.846 -0.477324 567.004 1.73952 569.875C5.66297 542.177 8.23202 497.389 17.6779 470.764C16.612 460.096 39.1536 410.435 45.1419 398.93Z"/><path fill="#3AC751" d="M45.1419 398.93C50.8189 401.874 62.2089 421.248 68.1762 425.371L70.4864 425.253C70.5594 429.573 70.5557 435.081 70.8872 439.297C69.8119 449.407 61.2417 475.987 58.8797 487.954C55.3871 505.649 54.1237 519.447 52.0498 537.132C51.1675 531.854 53.1614 515.789 49.7674 513.669C47.2418 516.334 47.2693 531.258 46.5819 536.091C45.2964 535.354 35.8836 524.374 33.9791 522.053C30.7359 518.102 21.7664 508.777 19.5473 505.374C14.3322 497.378 22.8573 480.967 20.3132 472.154L17.6779 470.764C16.612 460.096 39.1536 410.435 45.1419 398.93Z"/><path d="M3564.35 1043.67C3553.41 1065.87 3507.56 1063.36 3497.82 1037.19C3490.63 1017.86 3492 990.778 3513.98 982.278C3540.13 972.167 3560.78 981.328 3571.36 1006.7C3571.81 1022.05 3571.18 1029.64 3564.35 1043.67ZM3535.42 1047.02C3550.9 1045.39 3562.27 1031.73 3561.06 1016.21C3559.84 1000.69 3546.49 988.955 3530.95 989.746C3520.51 990.277 3511.18 996.434 3506.59 1005.82C3502 1015.21 3502.87 1026.36 3508.87 1034.92C3514.86 1043.48 3525.03 1048.12 3535.42 1047.02Z"/><path fill="#25AB7A" d="M45.1419 398.93C65.2204 355.123 112.314 287.711 154.892 265.085L155.83 266.094C154.43 270.245 132.466 299.314 128.054 308.801C122.862 319.966 111.011 337.403 105.368 349.659C91.8851 378.945 80.6838 408.676 70.8872 439.297C70.5557 435.081 70.5594 429.573 70.4864 425.253L68.1762 425.371C62.2089 421.248 50.8189 401.874 45.1419 398.93Z"/><path d="M3629.21 1014.58C3629.35 994.256 3621.04 982.781 3599.77 991.137C3589.77 995.067 3594.01 1015.11 3580.33 1006.4C3579.58 1004.74 3578.74 1003.57 3579.4 1001.56C3587.11 977.894 3619.98 969.028 3636.78 988.434C3638.77 990.739 3640.54 997.33 3643 1001.06L3643 1057.6C3639.23 1057.54 3635.64 1057.95 3632.5 1056.14C3630.4 1053.34 3630.64 1049.06 3630.37 1045.33C3616.91 1057.49 3599.09 1064.84 3581.76 1052.22C3580.14 1051.04 3578.69 1047.99 3576.41 1046.09C3575.34 1035.35 3576.5 1033.83 3580.85 1024.07C3582.41 1023.06 3583.43 1022.18 3584.6 1020.84C3592.35 1011.9 3616.63 1014.31 3629.21 1014.58ZM3615.13 1046.61C3620.42 1044.29 3628.42 1040.61 3630.5 1034.64C3631.13 1032.83 3631.02 1031.27 3630.03 1029.59C3627.94 1026.04 3622.48 1024.35 3618.62 1023.75C3612.68 1022.82 3605.31 1023.59 3599.34 1024.3C3594.61 1025.52 3589.64 1027.28 3586.81 1031.59C3585.63 1033.39 3585.1 1035.61 3585.62 1037.72C3586.47 1041.17 3589.44 1043.82 3592.45 1045.45C3599.43 1049.24 3607.69 1048.63 3615.13 1046.61Z"/><path fill="white" fill-opacity="0.011764706" d="M3413.5 435.867C3413.5 445.409 3414.51 507.016 3411.98 511.611L3410.67 511.389C3408.9 509.073 3407.69 506.023 3407.75 503.094C3408.06 487.335 3408.04 471.504 3407.9 455.743L3407.14 365.828C3407.06 356.721 3405.56 330.341 3407.58 323.702C3416.48 345.464 3413.12 408.936 3413.5 435.867Z"/><path fill="white" fill-opacity="0.015686275" d="M3609.47 713.798C3609.46 699.177 3608.48 603.16 3611 596.95C3613.1 595.513 3613.28 595.622 3615.94 595.722C3615.51 607.486 3614.17 713.232 3612.81 715.473C3611.7 714.911 3610.59 714.34 3609.47 713.798Z"/><defs><linearGradient id="gradient_9" gradientUnits="userSpaceOnUse" x1="995.90082" y1="155.11528" x2="954.05151" y2="119.10217"><stop offset="0" stop-color="#1091A1" stop-opacity="0.87058824"/><stop offset="1" stop-color="#199D90"/></linearGradient></defs><path fill="url(#gradient_9)" d="M958.376 132.462C957.64 128.336 954.71 124.099 956.229 119.653C958.887 118.142 963.154 119.343 966.813 119.771C972.343 125.205 999.106 152.918 999.6 158.785L997.909 159.646C992.462 156.4 964.035 136.772 958.376 132.462Z"/><path fill="white" fill-opacity="0.027450981" d="M3571.36 1006.7C3578.61 1013.82 3571.31 1022.14 3575.48 1027.23C3578.72 1026.61 3577.95 1026.54 3580.85 1024.07C3576.5 1033.83 3575.34 1035.35 3576.41 1046.09C3570.65 1043.13 3570.73 1043.12 3564.35 1043.67C3571.18 1029.64 3571.81 1022.05 3571.36 1006.7Z"/><path fill="#65FD01" fill-opacity="0.81960785" d="M308.962 163.326C312.472 158.675 320.352 149.491 324.582 145.768L325.474 149.907C326.826 150.668 326.864 150.846 328.383 150.965C323.161 155.439 314.989 159.917 308.962 163.326Z"/></svg>